<svg xmlns="http://www.w3.org/2000/svg" version="1.1" xmlns:xlink="http://www.w3.org/1999/xlink" xmlns:svgjs="http://svgjs.dev/svgjs" width="100%" height="100%" viewBox="0 0 1000 600"><rect width="1000" height="600" x="0" y="0" fill="transparent"/><g><rect width="333.3333333333333" height="333.3333333333333" y="113.15252126300045" fill="#910104" transform="matrix(1.3746791660145479,0,0,1.3746791660145479,0,-84.66162386839599)" x="90.93030548095703"/><path d="M259.6452924967406 354.81919395939434L205.44361245629136 354.81919395939434L205.44361245629136 204.81919570791868L257.8977753284174 204.81919570791868Q273.5681341984627 204.81919570791868 283.73811116165484 210.20498632504578Q293.9367359472784 215.56212911974134 298.92145705036415 224.61484100810387Q303.87753033101836 233.66755289646645 303.87753033101836 244.66831671017283L303.87753033101836 244.66831671017283Q303.87753033101836 254.32263286959747 300.49708728409814 260.6251538045334Q297.0879964147464 266.92767473946935 291.5589666854617 270.5945960107048Q286.029936956177 274.2328694595087 279.5841769090834 276.00903445026347L279.5841769090834 276.00903445026347L279.5841769090834 277.47007339427137Q286.4596542926499 277.89979073074426 293.42107514351096 282.3115553851994Q300.38249599437205 286.694672217223 305.05209105071094 294.91659725507134Q309.75033392948137 303.1098744704881 309.75033392948137 314.9700729571402L309.75033392948137 314.9700729571402Q309.75033392948137 326.25731499516183 304.62237371423805 335.2527312386614Q299.49441349899473 344.27679530459244 288.4363540404253 349.5479946319934Q277.3782945818558 354.81919395939434 259.6452924967406 354.81919395939434L259.6452924967406 354.81919395939434ZM223.60633187787954 286.55143310506537L223.60633187787954 338.69046993044464L259.6452924967406 338.69046993044464Q277.4355902267189 338.69046993044464 284.9699675262105 331.78634472444656Q292.47569700327057 324.853571696017 292.47569700327057 314.9700729571402L292.47569700327057 314.9700729571402Q292.47569700327057 307.349752190354 288.5795931525829 300.87534432082896Q284.7121371243267 294.4009364513038 277.52153369401344 290.4761847781846Q270.33093026370017 286.55143310506537 260.5333749921179 286.55143310506537L260.5333749921179 286.55143310506537L223.60633187787954 286.55143310506537ZM223.60633187787954 220.9192719144369L223.60633187787954 270.7378351228624L257.29617105735537 270.7378351228624Q265.5180960952036 270.7378351228624 272.13574307688634 267.5006311880999Q278.7533900585691 264.2920750757688 282.6781417316883 258.41927147730587Q286.60289340480756 252.5751157012743 286.60289340480756 244.66831671017283L286.60289340480756 244.66831671017283Q286.60289340480756 234.75617014886447 279.727416021241 227.85204494286646Q272.823290815243 220.9192719144369 257.8977753284174 220.9192719144369L257.8977753284174 220.9192719144369L223.60633187787954 220.9192719144369Z " fill="white" transform="matrix(1.3746791660145479,0,0,1.3746791660145479,0,-84.66162386839599)"/><path d="M571.4816187366473 228.5395926812231L526.6477766313076 354.81919395939434L507.5969747143421 354.81919395939434L562.6867372501686 204.81919570791868L581.4224131203873 204.81919570791868L636.5121756562139 354.81919395939434L617.4613737392483 354.81919395939434L572.6561794563399 228.5395926812231L571.4816187366473 228.5395926812231ZM533.6664931270317 312.33447329343977L533.6664931270317 296.2343970869215L610.4426572435243 296.2343970869215L610.4426572435243 312.33447329343977L533.6664931270317 312.33447329343977Z " fill="#910104" transform="matrix(1.3746791660145479,0,0,1.3746791660145479,0,-84.66162386839599)"/></g></svg>