<?xml version="1.0" standalone="no"?>
<!DOCTYPE svg PUBLIC "-//W3C//DTD SVG 20010904//EN"
 "http://www.w3.org/TR/2001/REC-SVG-20010904/DTD/svg10.dtd">
<svg version="1.0" xmlns="http://www.w3.org/2000/svg"
 width="608.000000pt" height="219.000000pt" viewBox="0 0 608.000000 219.000000"
 preserveAspectRatio="xMidYMid meet">

<g transform="translate(0.000000,219.000000) scale(0.100000,-0.100000)"
fill="#000000" stroke="none">
<path d="M524 1746 l-34 -34 0 -657 0 -657 34 -34 34 -34 696 0 c747 0 739 -1
766 49 14 27 14 1325 0 1352 -27 50 -19 49 -766 49 l-696 0 -34 -34z m752
-165 c39 -24 77 -72 103 -132 l20 -45 58 9 c219 37 297 -113 157 -300 -30 -39
-30 -39 2 -85 21 -30 33 -38 58 -38 81 0 135 -82 101 -153 -11 -23 -29 -41
-53 -52 -20 -9 -46 -21 -57 -27 -59 -34 -83 -41 -139 -40 -34 0 -75 2 -91 6
-29 6 -31 4 -47 -42 -25 -68 -78 -135 -127 -156 -39 -18 -43 -18 -86 -2 -52
20 -89 60 -122 134 -22 48 -27 51 -51 46 -15 -4 -31 -12 -37 -19 -22 -26 -54
-36 -77 -24 -13 7 -27 18 -31 26 -4 7 -23 20 -42 27 -91 39 -92 161 0 286 l33
45 -34 39 c-56 65 -87 139 -81 192 10 89 85 131 216 120 68 -5 80 -4 85 10 4
9 0 24 -9 34 -24 26 -19 87 10 115 19 20 35 25 72 25 26 0 55 5 63 10 24 16
73 11 106 -9z"/>
<path d="M1184 1515 c11 -58 -30 -115 -82 -115 -11 0 -22 -6 -25 -13 -3 -8 17
-20 60 -35 l64 -23 67 27 c37 14 71 30 75 34 12 11 -29 88 -66 128 -23 24 -40
32 -65 32 -34 0 -34 -1 -28 -35z"/>
<path d="M1069 1519 c-23 -23 -24 -33 -3 -53 33 -34 82 -8 70 38 -8 32 -42 40
-67 15z"/>
<path d="M1446 1363 c-27 -4 -28 -7 -22 -41 4 -20 9 -59 13 -85 5 -42 12 -52
56 -87 27 -22 53 -40 57 -40 11 0 64 87 78 129 18 51 15 70 -17 102 -26 25
-36 29 -83 28 -29 -1 -66 -4 -82 -6z"/>
<path d="M819 1327 c-25 -17 -35 -31 -37 -56 -4 -39 35 -126 72 -160 l25 -23
54 46 c51 43 55 49 60 103 4 32 9 68 13 79 7 26 -15 34 -97 34 -42 0 -65 -6
-90 -23z"/>
<path d="M1313 1322 c-24 -9 -43 -19 -43 -22 0 -10 120 -71 120 -60 0 22 -23
100 -29 99 -3 0 -25 -8 -48 -17z"/>
<path d="M1050 1289 c-18 -64 -10 -69 48 -28 l52 37 -45 15 -45 16 -10 -40z"/>
<path d="M1113 1215 l-83 -55 0 -105 0 -104 54 -35 c30 -19 73 -44 96 -56 l41
-21 72 45 c116 73 107 59 107 178 l0 104 -91 52 c-50 29 -96 52 -102 52 -7 -1
-49 -25 -94 -55z"/>
<path d="M1450 1059 l0 -63 30 29 c17 16 30 34 30 41 0 7 -13 22 -30 34 l-30
21 0 -62z"/>
<path d="M945 1080 l-29 -30 32 -33 32 -32 0 63 c0 34 -1 62 -3 62 -2 0 -16
-14 -32 -30z"/>
<path d="M1493 978 c-43 -45 -51 -60 -57 -103 -3 -27 -9 -62 -12 -76 -6 -26
-4 -27 45 -34 31 -4 71 -2 100 5 l49 12 -24 35 c-29 43 -30 77 -5 118 18 31
18 31 -9 63 -14 18 -29 32 -31 32 -3 0 -28 -24 -56 -52z"/>
<path d="M868 992 c-51 -60 -84 -154 -69 -195 14 -37 48 -53 70 -33 22 20 65
21 81 1 7 -9 23 -15 34 -13 23 3 25 20 11 115 -7 48 -13 57 -60 98 -49 41 -54
43 -67 27z"/>
<path d="M1637 922 c-36 -39 -7 -102 45 -102 25 0 58 36 58 63 0 50 -70 76
-103 39z"/>
<path d="M1332 852 l-54 -36 38 -13 c21 -8 43 -11 50 -9 10 4 29 85 22 91 -2
1 -27 -14 -56 -33z"/>
<path d="M1046 843 c13 -73 13 -73 72 -50 l53 20 -61 33 c-33 19 -63 34 -66
34 -3 0 -2 -17 2 -37z"/>
<path d="M1199 774 c-13 -7 -45 -21 -71 -29 -27 -9 -48 -22 -48 -28 0 -19 55
-110 79 -131 30 -27 86 -24 117 5 22 20 88 138 82 145 -2 1 -33 13 -69 27 -57
22 -68 23 -90 11z"/>
<path d="M3897 1263 c-4 -3 -7 -98 -7 -210 l0 -203 25 0 25 0 2 165 3 164 130
-164 c72 -90 136 -166 144 -170 36 -15 41 11 41 216 l0 199 -25 0 -25 0 -2
-162 -3 -163 -133 168 c-124 155 -153 182 -175 160z"/>
<path d="M4579 1256 c-82 -29 -131 -88 -145 -174 -18 -117 90 -233 219 -234
137 -1 239 108 224 241 -14 126 -169 213 -298 167z m180 -63 c43 -31 74 -105
67 -156 -22 -144 -207 -197 -301 -85 -104 123 5 296 169 267 21 -4 50 -15 65
-26z"/>
<path d="M5201 1252 c-14 -26 -181 -394 -181 -398 0 -2 12 -4 28 -4 24 0 31 9
64 80 l36 80 80 0 79 0 36 -80 c33 -74 39 -80 66 -80 l29 0 -93 208 c-73 162
-97 208 -113 210 -13 2 -25 -5 -31 -16z m55 -127 c13 -31 24 -60 24 -65 0 -6
-25 -10 -56 -10 -41 0 -55 3 -51 13 34 80 50 117 54 117 2 0 15 -25 29 -55z"/>
<path d="M2282 1058 l3 -203 120 -3 c74 -2 130 2 147 9 70 29 93 127 43 179
-16 17 -23 30 -16 34 6 4 15 25 21 47 9 32 8 46 -6 75 -26 54 -55 64 -194 64
l-120 0 2 -202z m226 151 c36 -12 56 -54 40 -85 -20 -37 -40 -44 -130 -44
l-88 0 0 70 0 70 74 0 c40 0 87 -5 104 -11z m44 -196 c24 -21 23 -68 -2 -93
-17 -17 -33 -20 -120 -20 l-100 0 0 65 0 65 102 0 c80 0 105 -3 120 -17z"/>
<path d="M2806 1244 c-3 -9 -6 -101 -6 -205 l0 -189 25 0 c24 0 25 2 25 75 l0
75 68 0 67 -1 54 -74 c46 -63 60 -75 83 -75 15 0 28 2 28 5 0 3 -25 38 -55 78
l-54 72 34 18 c86 44 86 161 -1 218 -40 26 -258 29 -268 3z m223 -35 c31 -11
61 -52 61 -84 0 -9 -13 -30 -29 -46 -28 -28 -33 -29 -120 -29 l-91 0 0 78 c0
43 3 82 7 85 11 11 137 8 172 -4z"/>
<path d="M3332 1117 c3 -134 5 -146 28 -180 30 -44 109 -87 159 -87 70 1 147
52 170 113 6 16 11 89 11 163 l0 134 -25 0 -25 0 0 -131 c0 -149 -12 -183 -74
-213 -45 -21 -79 -20 -124 3 -60 31 -66 49 -70 204 l-4 137 -25 0 -24 0 3
-143z"/>
</g>
</svg>
